<svg width="100" height="100" viewBox="0 0 100 100" fill="none" xmlns="http://www.w3.org/2000/svg">
  <defs>
    <linearGradient id="iconCard1" x1="0%" y1="0%" x2="100%" y2="100%">
      <stop offset="0%" style="stop-color:#ff006e;stop-opacity:1" />
      <stop offset="100%" style="stop-color:#8338ec;stop-opacity:1" />
    </linearGradient>
    <linearGradient id="iconCard2" x1="0%" y1="0%" x2="100%" y2="100%">
      <stop offset="0%" style="stop-color:#8338ec;stop-opacity:1" />
      <stop offset="100%" style="stop-color:#00f5ff;stop-opacity:1" />
    </linearGradient>
    <linearGradient id="iconCard3" x1="0%" y1="0%" x2="100%" y2="100%">
      <stop offset="0%" style="stop-color:#00f5ff;stop-opacity:1" />
      <stop offset="100%" style="stop-color:#fb00ff;stop-opacity:1" />
    </linearGradient>
    <filter id="iconGlow">
      <feGaussianBlur stdDeviation="2" result="coloredBlur"/>
      <feMerge>
        <feMergeNode in="coloredBlur"/>
        <feMergeNode in="SourceGraphic"/>
      </feMerge>
    </filter>
  </defs>
  
  <!-- Card 1 (back) -->
  <g transform="translate(10, 20) rotate(-20)">
    <rect width="35" height="55" rx="5" fill="url(#iconCard1)" opacity="0.8" filter="url(#iconGlow)"/>
    <circle cx="17.5" cy="15" r="6" fill="white" opacity="0.3"/>
    <rect x="8" y="28" width="20" height="3" rx="1.5" fill="white" opacity="0.3"/>
  </g>
  
  <!-- Card 2 (middle) -->
  <g transform="translate(25, 15) rotate(-8)">
    <rect width="35" height="55" rx="5" fill="url(#iconCard2)" opacity="0.9" filter="url(#iconGlow)"/>
    <path d="M 12 15 L 17.5 22 L 23 15 Z" fill="white" opacity="0.4"/>
    <rect x="8" y="30" width="20" height="3" rx="1.5" fill="white" opacity="0.4"/>
  </g>
  
  <!-- Card 3 (front) -->
  <g transform="translate(45, 12)">
    <rect width="35" height="55" rx="5" fill="url(#iconCard3)" filter="url(#iconGlow)"/>
    <polygon points="17.5,12 20,18 26,18 21,22 23,28 17.5,24 12,28 14,22 9,18 15,18" fill="white" opacity="0.5"/>
    <rect x="10" y="38" width="15" height="4" rx="2" fill="white" opacity="0.5"/>
  </g>
</svg>