<svg xmlns="http://www.w3.org/2000/svg" viewBox="0 0 100 100" fill="none">
  <defs>
    <linearGradient id="cardGrad1" x1="0%" y1="0%" x2="100%" y2="100%">
      <stop offset="0%" style="stop-color:#00BFFF"/>
      <stop offset="100%" style="stop-color:#0088cc"/>
    </linearGradient>
    <linearGradient id="cardGrad2" x1="0%" y1="0%" x2="100%" y2="100%">
      <stop offset="0%" style="stop-color:#FF4500"/>
      <stop offset="100%" style="stop-color:#cc3700"/>
    </linearGradient>
    <linearGradient id="cardGrad3" x1="0%" y1="0%" x2="100%" y2="100%">
      <stop offset="0%" style="stop-color:#32CD32"/>
      <stop offset="100%" style="stop-color:#228B22"/>
    </linearGradient>
    <linearGradient id="cardGrad4" x1="0%" y1="0%" x2="100%" y2="100%">
      <stop offset="0%" style="stop-color:#9370DB"/>
      <stop offset="100%" style="stop-color:#7B68EE"/>
    </linearGradient>
    <filter id="shadow" x="-20%" y="-20%" width="140%" height="140%">
      <feDropShadow dx="1" dy="2" stdDeviation="1" flood-opacity="0.3"/>
    </filter>
  </defs>
  
  <!-- Card 1 - Back left (Purple) -->
  <g transform="rotate(-20 50 55)" filter="url(#shadow)">
    <rect x="25" y="20" width="35" height="50" rx="4" fill="url(#cardGrad4)" stroke="#fff" stroke-width="1.5"/>
    <text x="42" y="50" font-family="Arial" font-size="12" font-weight="bold" fill="#fff" text-anchor="middle">♦</text>
  </g>
  
  <!-- Card 2 - Middle left (Green) -->
  <g transform="rotate(-10 50 50)" filter="url(#shadow)">
    <rect x="30" y="15" width="35" height="50" rx="4" fill="url(#cardGrad3)" stroke="#fff" stroke-width="1.5"/>
    <circle cx="47" cy="40" r="5" fill="#fff" opacity="0.4"/>
    <circle cx="47" cy="40" r="2.5" fill="#222"/>
  </g>
  
  <!-- Card 3 - Center (Blue - Main) -->
  <g transform="rotate(0 50 45)" filter="url(#shadow)">
    <rect x="35" y="10" width="35" height="50" rx="4" fill="url(#cardGrad1)" stroke="#fff" stroke-width="1.5"/>
    <polygon points="52,20 56,30 66,30 58,37 61,47 52,41 43,47 46,37 38,30 48,30" fill="#fff" opacity="0.9"/>
  </g>
  
  <!-- Card 4 - Middle right (Orange) -->
  <g transform="rotate(10 50 50)" filter="url(#shadow)">
    <rect x="40" y="15" width="35" height="50" rx="4" fill="url(#cardGrad2)" stroke="#fff" stroke-width="1.5"/>
    <rect x="50" y="33" width="14" height="14" rx="2" fill="#fff" opacity="0.9" transform="rotate(45 57 40)"/>
    <circle cx="57" cy="40" r="3.5" fill="url(#cardGrad2)"/>
  </g>
  
  <!-- Card 5 - Back right (Blue) -->
  <g transform="rotate(20 50 55)" filter="url(#shadow)">
    <rect x="45" y="20" width="35" height="50" rx="4" fill="url(#cardGrad1)" stroke="#fff" stroke-width="1.5"/>
    <path d="M55 40 L62 33 L69 40 L62 47 Z" fill="#fff" opacity="0.4"/>
  </g>
</svg>
